<?xml version="1.0" standalone="no"?><!DOCTYPE svg PUBLIC "-//W3C//DTD SVG 1.1//EN" "http://www.w3.org/Graphics/SVG/1.1/DTD/svg11.dtd"><svg class="icon" height="512" viewBox="0 0 1024 1024" version="1.1" xmlns="http://www.w3.org/2000/svg"><path d="M729.14097 484.051461c-129.643686 0-234.744395 105.098663-234.744395 234.744395 0 129.643686 105.10071 234.744395 234.744395 234.744395 129.645732 0 234.744395-105.10071 234.744395-234.744395C963.886389 589.150124 858.787726 484.051461 729.14097 484.051461L729.14097 484.051461zM876.062158 740.80308 728.943472 740.80308c-4.422729 0-8.327666-2.046612-10.981099-5.217838-2.143826-2.514263-3.485381-5.713119-3.485381-9.248641l0-0.134053c0-0.026606-0.007163-0.051165-0.007163-0.071631s0.007163-0.045025 0.007163-0.073678l-0.007163-146.854673c0.007163-7.995091 6.575766-14.458293 14.678304-14.458293 8.100492 0 14.681374 6.469342 14.681374 14.458293l-0.00921 132.25721 132.23572 0c8.004301 0 14.488992 6.559393 14.473643 14.671141C890.527614 734.237547 884.059296 740.80308 876.062158 740.80308L876.062158 740.80308zM650.328997 460.548164c24.188912-7.234775 49.815569-11.140735 76.358085-11.140735 2.501984 0 4.994758 0.041956 7.481392 0.109494L734.168474 428.185083l-83.839477 0L650.328997 460.548164zM495.545748 847.307765 175.305143 847.307765 175.305143 372.284935l614.737896 0 0 84.733846c30.297027 7.401574 58.558697 19.986193 83.791381 36.769438L873.83442 232.593406c0-30.895661-25.031093-55.901171-55.877635-55.901171l-83.83743 0 0 27.938306c0 46.25958-37.508265 83.792405-83.839477 83.792405-46.258557 0-83.791381-37.510312-83.791381-83.792405l0-27.938306L398.834102 176.692235l0 27.938306c0 46.25958-37.532825 83.792405-83.812871 83.792405-46.284139 0-83.839477-37.510312-83.839477-83.792405l0-27.938306-83.815941 0c-30.871101 0-55.876612 25.031093-55.876612 55.901171l0 614.71436c0 30.871101 25.029046 83.83743 55.876612 83.83743l423.525969 0C540.199761 908.936381 514.431887 880.346229 495.545748 847.307765zM314.153468 260.555248c30.377868 0 54.984289-24.654516 54.984289-55.032384l0-57.636698c0-30.423917-24.607444-55.031361-54.984289-55.031361-30.401404 0-55.032384 24.653493-55.032384 55.031361l0 57.636698C259.121084 235.899708 283.750017 260.555248 314.153468 260.555248zM649.435651 260.555248c30.401404 0 55.032384-24.654516 55.034431-55.032384l0-57.636698c0-30.423917-24.63098-55.031361-55.034431-55.031361-30.377868 0-54.984289 24.653493-54.984289 55.031361l0 57.636698C594.450339 235.899708 619.057783 260.555248 649.435651 260.555248zM370.919333 567.877635l83.792405 0 0 83.83743-83.792405 0 0-83.83743ZM510.610862 511.976464l44.692898 0c12.168134-10.258645 25.258267-19.458167 39.146579-27.428699L594.450339 428.185083l-83.839477 0L510.610862 511.976464zM231.181755 707.61419l83.839477 0 0 83.793428-83.839477 0 0-83.793428ZM231.181755 428.185083l83.839477 0 0 83.791381-83.839477 0 0-83.791381ZM370.919333 707.61419l83.792405 0 0 83.793428-83.792405 0 0-83.793428ZM231.181755 567.877635l83.839477 0 0 83.83743-83.839477 0 0-83.83743ZM370.919333 428.185083l83.792405 0 0 83.791381-83.792405 0 0-83.791381Z" /></svg>